Coordinates
version=1
nRows=22
nColumns=24
inDegrees=yes

Units are S.I. units (second, meters, Newtons, ...)
Angles are in degrees.

endheader
time	pelvis_tilt	pelvis_list	pelvis_rotation	pelvis_tx	pelvis_ty	pelvis_tz	hip_flexion_r	hip_adduction_r	hip_rotation_r	knee_angle_r	ankle_angle_r	subtalar_angle_r	mtp_angle_r	hip_flexion_l	hip_adduction_l	hip_rotation_l	knee_angle_l	ankle_angle_l	subtalar_angle_l	mtp_angle_l	lumbar_extension	lumbar_bending	lumbar_rotation
      1.19350000	      4.11591673	     -1.23172631	    -10.22428388	     -0.02535945	      0.87859890	      0.37723951	    -25.95975020	      2.18438001	      3.27466865	     -7.68476324	     22.18999413	     13.89276440	      7.73406718	     22.52779931	     -4.12835574	    -12.18157489	      0.93224415	      6.53226462	     -5.43315980	      3.63190629	    -11.71195171	      0.33069130	     12.34296423
      1.19766667	      4.07587727	     -1.14250107	    -10.35178734	     -0.01954314	      0.87760266	      0.37717186	    -26.00748140	      1.95517328	      3.08642105	     -8.26449718	     22.26538663	     14.30043814	      8.06085429	     22.76297357	     -4.08958023	    -12.46217649	      0.25406727	      6.70473796	     -5.20509414	      3.58272879	    -11.61360555	      0.13353715	     12.49346924
      1.20183333	      4.07576392	     -1.04768355	    -10.45416334	     -0.01363614	      0.87669961	      0.37711084	    -26.16723751	      1.73323605	      3.05424267	     -8.69642895	     22.06424103	     14.32951938	     11.36205838	     22.92256106	     -4.02519793	    -12.65456321	     -0.41607722	      6.82468038	     -5.10513849	      3.34628247	    -11.57029200	     -0.07555266	     12.50254765
      1.20600000	      4.06387044	     -0.92414963	    -10.54604891	     -0.00765038	      0.87580447	      0.37700076	    -26.28308767	      1.48103950	      2.92361477	     -9.20018578	     21.97212288	     14.54155462	     11.43003550	     23.06872464	     -3.91900774	    -12.77596214	     -1.07424038	      6.80578745	     -5.15965065	      3.35965265	    -11.49416365	     -0.31286895	     12.56104918
      1.21016667	      4.04918378	     -0.79105513	    -10.62528603	     -0.00160180	      0.87493799	      0.37688225	    -26.40690839	      1.22938094	      2.85400464	     -9.68260303	     21.78679150	     14.61817027	     11.51401896	     23.20960507	     -3.79771538	    -12.87526960	     -1.76366518	      6.77506513	     -5.22065852	      3.38138283	    -11.40820973	     -0.57307052	     12.57310758
      1.21433333	      4.02400889	     -0.65382780	    -10.69051595	      0.00449503	      0.87409144	      0.37672289	    -26.50391158	      0.97871948	      2.75604316	    -10.19931697	     21.59130988	     14.72489255	     11.65253090	     23.36855314	     -3.67021992	    -12.99384688	     -2.50757984	      6.67767190	     -5.24844109	      3.42110200	    -11.30853788	     -0.82147864	     12.57978553
      1.21850000	      4.03553696	     -0.51501159	    -10.73980960	      0.01065906	      0.87333385	      0.37654289	    -26.65373162	      0.72878714	      2.67355858	    -10.69126293	     21.32736739	     14.71643627	     11.73436966	     23.46825541	     -3.52234081	    -13.07772112	     -3.24747931	      6.49971665	     -5.37824990	      3.44408585	    -11.23383865	     -1.05580612	     12.57571691
      1.22266667	      4.00412413	     -0.33977032	    -10.81454935	      0.01685861	      0.87255407	      0.37635731	    -26.69865673	      0.43064912	      2.56481404	    -11.28581596	     21.06604246	     14.83265892	     14.98016341	     23.63509386	     -3.36443228	    -13.30629126	     -4.06390006	      6.30888505	     -5.27710614	      4.53119606	    -11.12727631	     -1.35550043	     12.56144548
      1.22683333	      3.94081329	     -0.18784103	    -10.80366734	      0.02311651	      0.87175552	      0.37605690	    -26.74389696	      0.20474110	      2.43885170	    -11.82970903	     20.71219791	     14.86103764	     15.06483053	     23.81308153	     -3.18172347	    -13.22877265	     -4.83383720	      5.97673040	     -5.53669646	      4.56330577	    -10.96569274	     -1.59516152	     12.50720550
      1.23100000	      3.93433953	     -0.00149473	    -10.81417089	      0.02945854	      0.87109381	      0.37577987	    -26.84489867	     -0.07500527	      2.33800490	    -12.37436766	     20.30930686	     14.79447380	     15.11057100	     23.91154215	     -2.96053788	    -13.26059992	     -5.59688356	      5.63126799	     -5.71267150	      4.57722244	    -10.85224532	     -1.89307991	     12.48222242
      1.23516667	      3.84593043	      0.20383367	    -10.81855651	      0.03582893	      0.87036370	      0.37547670	    -26.81568476	     -0.35851970	      2.23401789	    -12.99876725	     19.90845524	     14.82036017	     15.25660670	     24.09228672	     -2.72549395	    -13.22617638	     -6.35137169	      5.17425677	     -5.93767386	      4.62581545	    -10.64933684	     -2.22207902	     12.39986952
      1.23933333	      3.75629565	      0.39578350	    -10.79952346	      0.04217945	      0.86965531	      0.37507617	    -26.74159136	     -0.62611053	      2.05917680	    -13.71590917	     19.56802067	     14.89084116	     15.71455796	     24.28700534	     -2.48510133	    -13.12355744	     -7.13691023	      4.65917171	     -6.36987996	      4.78313335	    -10.45243669	     -2.47735179	     12.26570159
      1.24350000	      3.74912554	      0.61887737	    -10.76404885	      0.04866385	      0.86912834	      0.37469752	    -26.80707785	     -0.92444589	      1.93132930	    -14.31903385	     19.00460442	     14.77330390	     15.80912661	     24.38926128	     -2.20300068	    -13.15176684	     -7.93659070	      4.20416419	     -6.52287277	      4.81173891	    -10.32566098	     -2.82013999	     12.24238455
      1.24766667	      3.58444967	      0.83428391	    -10.72792018	      0.05506774	      0.86842450	      0.37425712	    -26.60694319	     -1.19205729	      1.80171806	    -15.11334067	     18.57145885	     14.79333350	     16.38210445	     24.65749595	     -1.93536192	    -12.96663527	     -8.71268450	      3.56390169	     -7.02744609	      4.99413803	    -10.03942114	     -3.11686505	     12.05259214
      1.25183333	      3.55362665	      1.09204305	    -10.66143250	      0.06162967	      0.86796305	      0.37379152	    -26.60537153	     -1.51650124	      1.60919430	    -15.76749281	     17.81458289	     14.66222931	     22.34688348	     24.77386713	     -1.59523566	    -12.89301924	     -9.48664004	      2.98513463	     -7.34678675	      6.92243632	     -9.88505962	     -3.50837128	     12.00204634
      1.25600000	      3.44941874	      1.32141164	    -10.59719429	      0.06812662	      0.86744584	      0.37330401	    -26.46425957	     -1.79635268	      1.47056549	    -16.56139343	     17.21580593	     14.58445671	     22.40938593	     25.00258643	     -1.30628249	    -12.82261208	    -10.34630602	      2.45363112	     -7.62863112	      6.94287868	     -9.65733638	     -3.82089527	     11.86356767
      1.26016667	      3.36633273	      1.57941850	    -10.51311855	      0.07469966	      0.86701247	      0.37279063	    -26.35113237	     -2.10236662	      1.31201963	    -17.33070720	     16.51244460	     14.49852382	     22.48194688	     25.20373893	     -0.97563097	    -12.74838103	    -11.20149398	      1.95573096	     -7.86224822	      6.95915193	     -9.44051537	     -4.19736209	     11.77080777
      1.26433333	      3.24062220	      1.82676482	    -10.40857406	      0.08121436	      0.86653818	      0.37219128	    -26.13104566	     -2.38992401	      1.10443409	    -18.22294877	     15.89385475	     14.47881424	     22.88482523	     25.46750931	     -0.63881407	    -12.53029877	    -12.09001589	      1.45419612	     -8.41911946	      7.04577898	     -9.19307376	     -4.52044064	     11.57747690
      1.26850000	      3.12119585	      2.07924106	    -10.30835029	      0.08774475	      0.86614638	      0.37161320	    -25.89241433	     -2.68237131	      0.92663475	    -19.15188344	     15.18551649	     14.38113152	     23.19399600	     25.72711686	     -0.31515008	    -12.41755761	    -12.99603007	      0.96172862	     -8.67105878	      7.10061106	     -8.95791479	     -4.85152170	     11.44094440
      1.27266667	      3.05423272	      2.35546953	    -10.18797017	      0.09437094	      0.86587706	      0.37102590	    -25.73490743	     -2.99939203	      0.73160752	    -20.01573355	     14.34595477	     14.28872694	     23.37476681	     25.93243024	      0.04549846	    -12.32334151	    -13.92903228	      0.61568759	     -8.87192985	      7.12760333	     -8.76336913	     -5.25841486	     11.35413082
      1.27683333	      2.91110835	      2.59708115	    -10.05452393	      0.10087186	      0.86551572	      0.37034449	    -25.40377144	     -3.27583484	      0.50736267	    -21.06558975	     13.63535765	     14.23264245	     23.85773407	     26.24636186	      0.37295708	    -12.11866752	    -14.91371926	      0.24668503	     -9.28148609	      7.18611250	     -8.51133748	     -5.54455175	     11.15081009
      1.28100000	      2.88128834	      2.89883730	     -9.92062993	      0.10752209	      0.86538198	      0.36968177	    -25.22831220	     -3.63735377	      0.23367810	    -22.00723641	     12.66733283	     14.10496652	     29.41267114	     26.40810289	      0.78041808	    -11.98958627	    -15.85288804	     -0.01207655	     -9.55793796	      7.72598896	     -8.36641187	     -5.97323674	     11.06035044
